<?xml version="1.0" encoding="UTF-8" standalone="no"?>
<svg
   xmlns:dc="http://purl.org/dc/elements/1.1/"
   xmlns:cc="http://creativecommons.org/ns#"
   xmlns:rdf="http://www.w3.org/1999/02/22-rdf-syntax-ns#"
   xmlns:svg="http://www.w3.org/2000/svg"
   xmlns="http://www.w3.org/2000/svg"
   width="512"
   height="512"
   viewBox="0 0 135.46666 135.46667"
   version="1.1"
   id="svg8">
  <defs
     id="defs2" />
  <metadata
     id="metadata5">
    <rdf:RDF>
      <cc:Work
         rdf:about="">
        <dc:format>image/svg+xml</dc:format>
        <dc:type
           rdf:resource="http://purl.org/dc/dcmitype/StillImage" />
        <dc:title></dc:title>
      </cc:Work>
    </rdf:RDF>
  </metadata>
  <path
     d="m 45.892439,21.412589 c -0.38059,0.259424 0.04271,-0.105449 0.01368,0.518214 -0.0046,0.09751 -0.188508,0.115291 -0.202091,0.211963 -0.02381,0.169402 0.118509,0.332805 0.101623,0.503036 -0.140848,1.41988 -0.533754,-1.232085 -0.0222,1.178469 0.140983,0.899177 -0.180052,1.774588 -0.196956,2.666862 -0.0086,0.452139 0.07781,0.902693 0.07014,1.354847 -0.07299,4.299844 -0.260157,-1.865565 -0.03799,3.324487 -0.0978,0.607676 -0.252444,1.2089 -0.293391,1.823035 -0.051,0.76487 0.02572,1.533096 0.01852,2.299634 -0.0078,0.824915 -0.01008,1.65082 -0.06345,2.474047 -0.05515,0.851021 -0.190441,1.695175 -0.261837,2.54499 -0.230904,2.748518 -0.187949,2.937568 -0.243546,5.75791 -0.07325,0.989925 -0.146494,1.979848 -0.219742,2.96977 7.94e-4,1.064861 0.06496,2.131553 0.0024,3.19458 -0.05846,0.995047 -0.333206,1.971712 -0.364567,2.967979 -0.03558,1.130189 0.178684,2.257597 0.164489,3.388257 -0.0131,1.042934 -0.17158,2.079003 -0.246184,3.119345 -0.07577,1.0566 -0.136618,2.114216 -0.204928,3.171327 -0.0459,1.078815 -0.04322,2.160794 -0.137705,3.236444 -0.08938,1.017614 -0.275527,2.024401 -0.41329,3.036599 -0.111323,1.032206 -0.246602,2.062107 -0.333973,3.096615 -0.0887,1.050274 -0.100793,2.1062 -0.194104,3.156072 -0.08883,0.999468 -0.234733,1.99304 -0.352099,2.989561 -0.07621,1.000726 -0.152419,2.001454 -0.228627,3.002182 -0.2463,2.446089 -0.274243,3.12126 -0.667247,5.51021 -0.134025,0.8147 -0.35419,1.615167 -0.457599,2.434317 -0.103101,0.816706 -0.09396,1.643856 -0.160806,2.464327 -0.114366,1.403813 -0.279056,2.80307 -0.418148,4.20465 -0.415306,1.17218 -0.02397,2.392972 -0.171011,3.577852 -0.463105,3.7315 -0.388498,-1.1477 -0.555807,2.5604 -0.106238,2.35456 0.267121,0.28025 -0.158372,2.21395 -0.286353,1.89548 -0.0367,-0.14749 -0.08936,1.78757 -0.0065,0.2397 -0.08668,0.47422 -0.0877,0.714 -0.0011,0.254 0.09041,0.50379 0.08143,0.75763 -0.0064,0.18003 -0.08456,0.35023 -0.126834,0.52534 0.007,0.19003 0.01408,0.38005 0.02111,0.57007 -0.164473,0.48892 -0.03501,1.10227 -0.113027,1.58488 -0.02463,0.1524 -0.108315,0.29091 -0.135435,0.44289 0,0 -7.447643,-5.65457 -7.447643,-5.65457 v 0 c 0.04398,-0.0436 0.125736,-0.0691 0.131943,-0.13075 0.01206,-0.11976 -0.07424,-0.23132 -0.08337,-0.35134 -0.006,-0.0786 0.07548,-0.60051 0.09381,-0.65434 0.03838,-0.11272 0.16292,-0.19737 0.165825,-0.31642 0.0051,-0.20664 -0.09559,-0.4022 -0.143386,-0.6033 0.373153,-0.96559 0.0033,0.2096 0.04433,-1.14481 0.0073,-0.24027 0.336344,-0.99679 0.362172,-1.21034 0.0358,-0.29603 -0.01103,-0.59628 -0.01654,-0.89442 0.04689,-0.29521 0.09377,-0.59041 0.140655,-0.88562 0.168564,-1.375819 0.02093,-0.69568 0.449445,-2.038982 0.06235,-0.465878 -0.02461,-0.940742 5.29e-4,-1.410099 0.02622,-0.488175 0.05798,-0.979122 0.153456,-1.458587 0.59431,-2.984431 0.449813,0.278855 0.391104,-3.411551 0.780238,-2.788949 0.329677,-0.804733 0.735788,-3.963625 0.09992,-0.777208 0.246425,-1.548056 0.341789,-2.325838 0.105304,-0.858883 0.157099,-1.723713 0.260056,-2.582878 0.217699,-1.816667 0.546621,-3.619019 0.722276,-5.441265 0.637423,-7.145573 -0.176247,1.178105 0.730557,-5.839579 0.131296,-1.016098 0.197702,-2.039535 0.300865,-3.058874 0.104008,-1.027634 0.245727,-2.051852 0.320646,-3.082015 0.0779,-1.07115 0.07503,-2.14684 0.137605,-3.218992 0.06126,-1.049544 0.155897,-2.096871 0.233846,-3.145306 0.0071,-1.099357 -0.03123,-2.199952 0.02143,-3.298068 0.173029,-3.608147 0.431315,-2.567678 0.473569,-6.200548 0.01286,-1.106241 -0.131056,-2.210797 -0.114194,-3.316986 0.01524,-1.000207 0.378254,-4.952759 0.467932,-5.978975 -0.03523,-1.038666 -0.117743,-2.076801 -0.105685,-3.115995 0.06605,-5.691573 0.229272,0.03636 0.428868,-5.318612 0.03176,-0.852119 -0.0432,-1.704874 -0.06479,-2.557311 -0.05176,-0.796737 -0.18035,-1.592189 -0.155273,-2.390212 0.01934,-0.615447 0.191812,-1.216472 0.287721,-1.824708 -0.02965,-0.61727 -0.05528,-1.234747 -0.08894,-1.851811 -0.02906,-0.532781 -0.09974,-1.064069 -0.09922,-1.597642 5.3e-4,-0.412016 0.09739,-0.819842 0.102016,-1.231832 0.01074,-0.956788 -0.193704,-1.914988 -0.13883,-2.87461 0.0046,-0.07169 0.06535,-0.934826 0.0546,-1.049954 -0.01503,-0.160832 -0.05715,-0.319001 -0.107125,-0.472607 -0.05038,-0.154862 -0.193161,-0.286095 -0.192709,-0.448947 2.04e-4,-0.0727 0.12949,-0.06612 0.194233,-0.09918 -0.09651,-0.114891 -0.193019,-0.229783 -0.289528,-0.344674 0,0 7.98463,5.461865 7.98463,5.461865 z"
     id="path4582"
     style="opacity:1;fill:#000000;fill-opacity:1;stroke:none;stroke-width:16.93333244;stroke-linecap:square;stroke-linejoin:bevel;stroke-miterlimit:4;stroke-dasharray:none;stroke-dashoffset:0;stroke-opacity:1" />
  <path
     d="m 36.298155,76.980885 c 0.53,-0.289957 0.810094,-0.849667 1.21081,-1.271685 0.349031,-0.367586 0.756664,-0.635117 1.163148,-0.932948 0.54415,-0.84242 1.407742,-1.36304 2.108677,-2.056889 0.269644,-0.26692 0.455625,-0.628049 0.773766,-0.834787 2.457304,-1.596842 0.123753,0.822902 2.040464,-1.420683 1.689301,-1.336833 0.343802,-0.36263 2.241446,-1.489726 0.403707,-0.239778 0.769128,-0.54579 1.190482,-0.752996 0.451078,-0.221821 0.956406,-0.31665 1.412849,-0.527211 2.738054,-1.263092 -0.296476,-0.249661 2.779067,-1.153295 2.602772,-0.99177 0.206774,-0.153845 2.973985,-0.897046 0.487172,-0.130842 0.951913,-0.343149 1.445009,-0.449509 0.523896,-0.113001 1.063903,-0.131074 1.59457,-0.20611 1.526182,-0.215802 1.486034,-0.227198 2.97199,-0.514977 1.458113,-0.289811 2.939859,-0.247187 4.415822,-0.219414 0.474424,0.0089 0.949775,-0.0038 1.423268,0.02727 0.526277,0.03453 2.343824,0.274423 2.87991,0.342831 0.516347,0.157404 1.027136,0.334362 1.549045,0.47221 0.454943,0.120163 0.926113,0.173945 1.379128,0.301191 1.938168,0.54441 3.763631,1.494282 5.517075,2.461311 3.436866,2.96346 6.521834,6.243513 9.572141,9.62561 0.377701,0.418785 0.607663,0.950346 0.899835,1.432711 0.316079,0.521832 0.664543,1.02767 0.924695,1.57952 0.21831,0.463092 0.33593,0.967269 0.503899,1.450901 0.195865,0.533717 0.424277,1.056592 0.587597,1.601152 0.04649,0.155009 0.705122,3.081182 0.731017,3.20171 0.143095,0.666049 0.560329,2.633302 0.597352,3.327432 0.02548,0.477816 -0.06028,0.955092 -0.09042,1.432639 0.34245,1.516996 0.179729,3.056636 0.237696,4.594601 0.01836,0.487026 0.08346,0.973095 0.07214,1.460333 -0.09587,4.124259 -0.23913,-1.70008 -0.08922,2.554689 -0.09583,1.10795 0.118806,2.22469 0.08402,3.33018 -0.0087,0.27713 -0.09327,0.5479 -0.107929,0.82478 -0.04397,0.83042 0.03253,0.88919 0.224126,1.70681 0.02072,0.23473 0.08748,0.46991 0.06212,0.70418 -0.01794,0.16575 -0.194594,0.29667 -0.188484,0.46327 0.009,0.24576 0.177149,0.46072 0.231169,0.70065 0.03755,0.16677 0.01754,0.34191 0.04167,0.51114 0.143391,1.00547 0.08611,0.0461 0.117809,0.90009 0.02429,0.132 0.0486,0.26401 0.07289,0.39601 0,0 -7.645709,-5.38711 -7.645709,-5.38711 v 0 c -0.0057,-0.11943 -0.0113,-0.23885 -0.01696,-0.35828 0.127143,-0.90805 0.0064,0.37548 -0.187256,-0.95614 -0.02093,-0.14383 0.06486,-0.28362 0.08694,-0.42728 0.10001,-0.65072 0.02175,-1.2875 -0.109106,-1.93023 -0.05701,-0.678102 -0.120372,-0.94499 -0.01781,-1.619609 0.04045,-0.266081 0.168839,-0.516633 0.188802,-0.785029 0.02601,-0.34965 -0.05494,-0.69994 -0.05228,-1.050542 0.01913,-2.517216 0.1841,0.548217 -0.02217,-2.29807 -0.0094,-0.427762 -0.03513,-0.855475 -0.02835,-1.283287 0.02151,-1.358117 0.201908,-2.702489 0.08017,-4.063585 -0.04785,-0.534982 -0.195196,-1.058756 -0.231418,-1.594652 -0.03174,-0.469574 0.01881,-0.941104 0.02823,-1.411655 -0.09704,-2.353532 0.04913,-0.578482 -0.369136,-3.044804 -0.08236,-0.485642 -0.103915,-0.981612 -0.208611,-1.462936 -0.11522,-0.529717 -0.303149,-1.040982 -0.449556,-1.562942 -0.133583,-0.476236 -0.207677,-0.971944 -0.39039,-1.431575 -0.218765,-0.550315 -0.538485,-1.054921 -0.807728,-1.582381 -0.70436,-1.593389 -0.468003,-1.272315 -1.562637,-2.783091 -0.328464,-0.453334 -1.450044,-1.697519 -1.032589,-1.324517 1.730732,1.546442 3.295065,3.270459 4.98771,4.858496 0.388634,0.364611 -0.690996,-0.813509 -1.072663,-1.18541 -0.341482,-0.332746 -0.727993,-0.615911 -1.091991,-0.923867 -1.700151,-1.34166 -0.801185,-0.718145 -2.567014,-1.790912 -0.480433,-0.29187 -0.937797,-0.625229 -1.440177,-0.877459 -0.411599,-0.206652 -0.859282,-0.331872 -1.290537,-0.493553 -1.696881,-0.636172 -0.986041,-0.410504 -2.687672,-0.823646 -0.470286,-0.114458 -0.930735,-0.282138 -1.410859,-0.343373 -0.842523,-0.107455 -1.707194,0.151812 -2.547548,-0.05008 -0.53771,-0.06876 -1.05423,-0.282694 -1.595305,-0.315857 -0.915128,-0.05609 -1.820307,0.352007 -2.738141,0.260829 -0.911583,0.124886 -1.985328,0.282347 -2.899072,0.364249 -0.529865,0.04749 -1.066485,0.02553 -1.592516,0.104918 -1.451764,0.21912 -1.412621,0.40345 -2.757183,0.880075 -0.465188,0.164902 -0.942515,0.293328 -1.41377,0.439992 -3.164676,1.086159 0.345379,-0.170585 -2.647333,1.057775 -0.908733,0.372988 -1.674101,0.49815 -2.484274,1.08467 -0.339971,0.246121 -0.562755,0.6292 -0.895006,0.88565 -0.332142,0.256363 -0.722103,0.427461 -1.083154,0.641192 -3.215076,2.872337 1.462096,-1.194229 -1.933908,1.393602 -0.29083,0.221621 -0.501012,0.533416 -0.768106,0.783135 -0.25481,0.238234 -0.540372,0.442 -0.796068,0.679281 -2.246421,2.084633 0.827831,-0.625023 -1.313831,1.242237 -2.104919,2.179315 0.893921,-0.968237 -0.923941,1.070007 -0.217091,0.243411 -0.539739,0.390721 -0.720066,0.662493 -7.94e-4,0.0013 -0.155022,0.506574 -0.177464,0.580096 0,0 -6.947186,-6.502773 -6.947186,-6.502773 z"
     id="path4584"
     style="opacity:1;fill:#000000;fill-opacity:1;stroke:none;stroke-width:16.93333244;stroke-linecap:square;stroke-linejoin:bevel;stroke-miterlimit:4;stroke-dasharray:none;stroke-dashoffset:0;stroke-opacity:1" />
</svg>
