<?xml version="1.0" encoding="UTF-8" standalone="no"?>
<!-- Created with Inkscape (http://www.inkscape.org/) -->

<svg
   xmlns:dc="http://purl.org/dc/elements/1.1/"
   xmlns:cc="http://creativecommons.org/ns#"
   xmlns:rdf="http://www.w3.org/1999/02/22-rdf-syntax-ns#"
   xmlns:svg="http://www.w3.org/2000/svg"
   xmlns="http://www.w3.org/2000/svg"
   xmlns:sodipodi="http://sodipodi.sourceforge.net/DTD/sodipodi-0.dtd"
   xmlns:inkscape="http://www.inkscape.org/namespaces/inkscape"
   width="210mm"
   height="297mm"
   viewBox="0 0 210 297"
   version="1.1"
   id="svg8"
   inkscape:version="0.92.1 r15371"
   sodipodi:docname="definitive style.svg">
  <defs
     id="defs2" />
  <sodipodi:namedview
     id="base"
     pagecolor="#ffffff"
     bordercolor="#666666"
     borderopacity="1.0"
     inkscape:pageopacity="0.0"
     inkscape:pageshadow="2"
     inkscape:zoom="0.49497475"
     inkscape:cx="312.24354"
     inkscape:cy="536.73885"
     inkscape:document-units="mm"
     inkscape:current-layer="layer1"
     showgrid="false"
     showguides="true"
     inkscape:guide-bbox="true"
     inkscape:window-width="1892"
     inkscape:window-height="1023"
     inkscape:window-x="12"
     inkscape:window-y="41"
     inkscape:window-maximized="1">
    <sodipodi:guide
       position="26.726952,255.50968"
       orientation="0,1"
       id="guide4491"
       inkscape:locked="false" />
    <sodipodi:guide
       position="42.763123,171.85431"
       orientation="0,1"
       id="guide4493"
       inkscape:locked="false" />
    <sodipodi:guide
       position="105.57146,218.09194"
       orientation="1,0"
       id="guide4865"
       inkscape:locked="false" />
    <sodipodi:guide
       position="33.40869,255.50969"
       orientation="1,0"
       id="guide4963"
       inkscape:locked="false" />
    <sodipodi:guide
       position="230.6536,234.66265"
       orientation="1,0"
       id="guide5063"
       inkscape:locked="false" />
  </sodipodi:namedview>
  <metadata
     id="metadata5">
    <rdf:RDF>
      <cc:Work
         rdf:about="">
        <dc:format>image/svg+xml</dc:format>
        <dc:type
           rdf:resource="http://purl.org/dc/dcmitype/StillImage" />
        <dc:title></dc:title>
      </cc:Work>
    </rdf:RDF>
  </metadata>
  <g
     inkscape:label="Layer 1"
     inkscape:groupmode="layer"
     id="layer1">
    <path
       style="opacity:1;fill:#532f2f;fill-opacity:1;stroke:none;stroke-width:1.32291667;stroke-linecap:butt;stroke-linejoin:miter;stroke-miterlimit:4;stroke-dasharray:none;stroke-dashoffset:0;stroke-opacity:1"
       id="path4875"
       d="m 118.33477,21.035957 c -0.0715,0.561564 -0.34103,1.056125 -0.62283,1.537033 -0.50319,0.786359 -1.17362,1.441658 -1.84809,2.079137 -0.84541,0.760677 -1.76492,1.431285 -2.67603,2.10962 -0.70806,0.520562 -1.41923,1.037055 -2.11819,1.569841 -0.48931,0.367004 -0.90025,0.80346 -1.20597,1.332225 -0.32479,0.682739 -0.3401,1.459955 -0.38348,2.201307 -0.0577,1.639451 0.0755,3.277997 0.18751,4.912373 0.21259,2.827208 0.38386,5.65662 0.49999,8.489394 0.1236,3.74269 0.11679,7.488116 0.12946,11.232383 0.008,4.058245 0.019,8.116485 0.0303,12.174725 0.0125,3.943197 0.0193,7.886404 0.008,11.829608 -0.0135,3.707643 -0.0667,7.414945 -0.10321,11.122387 -0.0365,3.392832 -0.0155,6.785708 0.0482,10.17802 0.0593,3.04293 0.23063,6.08151 0.44928,9.11662 0.18125,2.45673 0.40983,4.90956 0.64208,7.36188 0.17385,1.80107 0.32761,3.60414 0.42118,5.41127 -0.0149,0.39946 0.2093,2.31546 -0.25583,2.51026 -0.0994,0.0416 -0.2151,-0.0117 -0.32264,-0.0175 -1.98344,-1.73886 -0.50664,-0.35326 -3.71137,-4.8097 0,0 -0.20281,-0.30996 -0.20281,-0.30996 v 0 c -3.39458,-5.64623 -2.23873,-3.33349 -3.84367,-6.73715 -0.31135,-0.85003 -0.44717,-1.14165 -0.65603,-1.98561 -0.24889,-1.00578 -0.33743,-2.04329 -0.44576,-3.07044 -0.1639,-1.81068 -0.29648,-3.62404 -0.45499,-5.4352 -0.20288,-2.41334 -0.38905,-4.828144 -0.54171,-7.245237 -0.18025,-3.013774 -0.31537,-6.030161 -0.35477,-9.049454 -0.0453,-3.381399 -0.0541,-6.763094 0.002,-10.144498 0.0518,-3.686588 0.1178,-7.373043 0.13568,-11.060025 0.02,-3.926546 0.0248,-7.853148 0.0185,-11.779739 -0.005,-4.058888 -0.0111,-8.11779 -0.0342,-12.176625 -0.0223,-3.766637 -0.0402,-7.534868 -0.21525,-11.298216 -0.15484,-2.89355 -0.37565,-5.782206 -0.64624,-8.667297 -0.14642,-1.728629 -0.31142,-3.464999 -0.22128,-5.201418 0.0759,-0.88516 0.19379,-1.759243 0.73406,-2.496443 0.42108,-0.557433 0.92488,-1.036665 1.51185,-1.419346 0.72293,-0.495854 1.46569,-0.961409 2.18952,-1.455967 0.90165,-0.619648 1.80318,-1.248062 2.59859,-2.0034987 0.62567,-0.6006568 1.20873,-1.2395713 1.73656,-1.9287337 0.20837,-0.2477325 0.46549,-0.6779238 0.78507,-0.7744264 0,0 8.7367,13.8984218 8.7367,13.8984218 z"
       inkscape:connector-curvature="0" />
    <path
       style="opacity:1;fill:#532f2f;fill-opacity:1;stroke:none;stroke-width:1.32291667;stroke-linecap:butt;stroke-linejoin:miter;stroke-miterlimit:4;stroke-dasharray:none;stroke-dashoffset:0;stroke-opacity:1"
       id="path4879"
       d="m 109.53129,80.589442 c 0.36438,0.705278 0.68911,1.430705 1.01714,2.153459 0.56354,1.240851 1.08988,2.498027 1.6122,3.756626 0.64576,1.607664 1.3135,3.20621 2.00123,4.796343 0.6874,1.606912 1.45668,3.176129 2.25038,4.732596 0.65196,1.27721 1.32833,2.541487 2.00854,3.803764 0.50183,0.92928 0.99988,1.86059 1.50224,2.78959 0.32464,0.62558 0.68162,1.23452 0.97585,1.87537 0.0134,0.0717 0.25151,0.51119 0.23324,0.55807 -0.0111,0.0285 -0.0495,-0.037 -0.069,-0.0606 -0.0849,-0.10285 -0.16221,-0.21179 -0.24332,-0.31769 -1.33124,-1.86361 -0.39681,-0.54697 -2.7695,-3.97367 0,0 -0.20938,-0.30556 -0.20938,-0.30556 v 0 c -2.61319,-3.850966 -1.57995,-2.30236 -3.12393,-4.629579 -0.51596,-0.801392 -1.01202,-1.613472 -1.46906,-2.45023 -0.37407,-0.665094 -0.72653,-1.341088 -1.07884,-2.017927 -0.46613,-0.88361 -0.93656,-1.764937 -1.40371,-2.648011 -0.59621,-1.136422 -1.181,-2.279247 -1.73211,-3.438329 -0.65677,-1.406681 -1.29811,-2.820961 -1.88392,-4.258958 -0.62725,-1.533324 -1.22629,-3.078025 -1.86876,-4.605149 -0.53045,-1.267752 -1.08388,-2.525271 -1.63995,-3.781949 -0.0716,-0.174004 -0.52444,-1.094865 -0.37861,-1.281629 0,0 6.26928,9.303433 6.26928,9.303433 z"
       inkscape:connector-curvature="0" />
    <path
       style="opacity:1;fill:#532f2f;fill-opacity:1;stroke:none;stroke-width:1.32291667;stroke-linecap:butt;stroke-linejoin:miter;stroke-miterlimit:4;stroke-dasharray:none;stroke-dashoffset:0;stroke-opacity:1"
       id="path4895"
       d="m 111.79788,11.619701 c 0.3614,0.461148 0.70598,0.935995 1.0658,1.399106 0.75992,0.958147 1.52279,1.913685 2.26625,2.884714 0.8136,1.083639 1.63241,2.164104 2.38467,3.291496 1.55361,2.445494 2.79615,5.077278 4.10842,7.654804 0,0 0.16119,0.333505 0.16119,0.333505 v 0 c 0.42505,0.943477 0.86007,1.882523 1.27513,2.830433 0.20106,0.45915 0.40601,0.917662 0.57301,1.390261 0.0202,0.05705 0.0412,0.167613 -0.0179,0.180628 -0.0732,0.01611 -0.11863,-0.09167 -0.17795,-0.137498 -0.79744,-0.956408 -1.45547,-2.022573 -2.22672,-3.000193 -0.74044,-0.984467 -1.49619,-1.957014 -2.26953,-2.915914 -0.4677,-0.592383 -0.94826,-1.178758 -1.33687,-1.827765 0,0 -5.80551,-12.083577 -5.80551,-12.083577 z"
       inkscape:connector-curvature="0" />
    <path
       style="opacity:1;fill:#532f2f;fill-opacity:1;stroke:none;stroke-width:1.32291667;stroke-linecap:butt;stroke-linejoin:miter;stroke-miterlimit:4;stroke-dasharray:none;stroke-dashoffset:0;stroke-opacity:1"
       id="path4913"
       d="m 133.0432,71.634328 c -0.48668,0.361834 -0.92535,0.785307 -1.36909,1.197597 -0.68023,0.621302 -1.32832,1.275622 -1.96919,1.936967 -0.47995,0.504285 -0.95302,1.014936 -1.41445,1.536178 -0.39035,0.387909 -0.66531,0.839928 -0.8606,1.35028 -0.2649,0.852228 -0.25779,1.756027 -0.28131,2.639497 -0.0181,1.711835 0.0136,3.423708 0.0359,5.135361 0.0243,2.527655 0.0618,5.054785 0.15193,7.581008 0.11861,2.97034 0.36573,5.93326 0.60059,8.896044 0.23912,2.9679 0.43187,5.93921 0.60847,8.9114 0.13755,2.39347 0.28173,4.78666 0.38651,7.18183 0.004,1.38956 0.2123,2.849 -0.27183,4.18096 -0.0619,0.1072 -0.0865,0.24756 -0.1857,0.32161 -0.54104,0.40391 -1.53336,-0.80821 -1.67405,-0.97767 -0.70367,-0.84748 -1.33747,-1.75063 -2.0062,-2.62595 0,0 -0.20244,-0.3102 -0.20244,-0.3102 v 0 c -1.63357,-2.86005 -3.4187,-5.70934 -4.13297,-8.97001 -0.42195,-1.89363 -0.67751,-3.81154 -0.75433,-5.75224 -0.12736,-2.36416 -0.21581,-4.730169 -0.33699,-7.094655 -0.15633,-2.947332 -0.34099,-5.893099 -0.581,-8.83493 -0.23418,-2.982248 -0.47478,-5.964886 -0.59703,-8.954365 -0.0988,-2.575248 -0.15929,-5.151543 -0.23256,-7.727603 -0.0553,-1.775823 -0.12452,-3.55242 -0.11039,-5.329357 0.0302,-0.997823 0.0676,-2.016993 0.49546,-2.938864 0.28691,-0.558927 0.64458,-1.059292 1.11065,-1.485477 0.49408,-0.494387 0.9733,-1.00326 1.47515,-1.489938 0.665,-0.63872 1.35106,-1.255659 1.99727,-1.9139 0.4401,-0.442807 0.88314,-0.88474 1.29417,-1.354828 0,0 8.82406,14.891255 8.82406,14.891255 z"
       inkscape:connector-curvature="0" />
    <path
       style="opacity:1;fill:#532f2f;fill-opacity:1;stroke:none;stroke-width:1.32291667;stroke-linecap:butt;stroke-linejoin:miter;stroke-miterlimit:4;stroke-dasharray:none;stroke-dashoffset:0;stroke-opacity:1"
       id="path4915"
       d="m 133.17846,72.830541 c 0.29104,0.565581 0.57145,1.136523 0.86315,1.701903 0.50515,0.960512 0.98507,1.933652 1.44886,2.91469 0.41516,0.916202 0.86457,1.817423 1.25167,2.746084 -0.20087,-0.177509 0.24851,0.437589 0.11198,0.405548 -0.092,-0.02159 -0.14742,-0.120417 -0.20678,-0.193945 -0.24996,-0.309576 -0.48849,-0.628507 -0.71908,-0.952759 -0.84514,-1.188414 -1.67185,-2.389826 -2.50778,-3.584739 0,0 -0.20855,-0.306126 -0.20855,-0.306126 v 0 c -1.7279,-2.59565 -3.56507,-5.152689 -5.01929,-7.920268 -0.49781,-0.985549 -0.95164,-1.991566 -1.42466,-2.989098 -0.48017,-0.985401 -0.97993,-1.960848 -1.4834,-2.93452 -0.26495,-0.529852 -0.56236,-1.06344 -0.73083,-1.632217 0,0 8.62471,12.745447 8.62471,12.745447 z"
       inkscape:connector-curvature="0" />
    <path
       style="opacity:1;fill:#532f2f;fill-opacity:1;stroke:none;stroke-width:1.32291667;stroke-linecap:butt;stroke-linejoin:miter;stroke-miterlimit:4;stroke-dasharray:none;stroke-dashoffset:0;stroke-opacity:1"
       id="path4957"
       d="m 97.993836,116.78808 c -0.452845,0.38681 -0.868579,0.81297 -1.279411,1.24329 -0.807426,0.85184 -1.539835,1.77015 -2.26483,2.6919 -0.627867,0.79932 -1.230046,1.61814 -1.813809,2.45006 -0.357413,0.57799 -0.768374,1.09229 -1.268492,1.54937 -0.344993,0.27031 -0.688851,0.53269 -0.954783,0.88346 -0.104712,0.0842 -0.153967,0.38021 -0.296156,0.42214 -0.241306,0.0712 -0.608719,-0.35616 -0.740326,-0.47237 -1.551744,-1.81412 -2.743708,-4.01901 -3.994904,-5.99938 0,0 -0.192442,-0.3165 -0.192442,-0.3165 v 0 c -1.242385,-2.12677 -2.661335,-4.25031 -3.618325,-6.54743 -0.106278,-0.33686 -0.318799,-0.79638 -0.254235,-1.16662 0.02869,-0.1645 0.225091,-0.2814 0.295626,-0.42304 0.280864,-0.4341 0.447776,-0.92162 0.643179,-1.39804 0.29972,-0.65727 0.652938,-1.27051 1.118663,-1.8279 0.613431,-0.81112 1.260795,-1.59573 1.895703,-2.39 0.752655,-0.92935 1.506603,-1.85785 2.286815,-2.76435 0.423952,-0.49117 0.839488,-0.99321 1.296532,-1.45387 0,0 9.141195,15.51928 9.141195,15.51928 z"
       inkscape:connector-curvature="0" />
    <path
       style="opacity:1;fill:#532f2f;fill-opacity:1;stroke:none;stroke-width:1.32291667;stroke-linecap:butt;stroke-linejoin:miter;stroke-miterlimit:4;stroke-dasharray:none;stroke-dashoffset:0;stroke-opacity:1"
       id="path4959"
       d="m 96.075202,134.06242 c -0.31365,0.1392 -0.604771,0.32447 -0.8949,0.50642 -0.51558,0.31659 -0.983469,0.69873 -1.429856,1.10506 -0.617548,0.55466 -1.116086,1.21279 -1.555295,1.91273 -0.543396,0.89182 -0.774948,1.88728 -0.900453,2.91093 -0.112266,1.25983 0.0082,2.52127 0.182909,3.76885 0.188444,1.25727 0.528555,2.48181 0.940792,3.682 2.118495,5.40098 7.020777,12.61552 -6.8463,-11.35589 1.526259,2.7676 2.938245,5.59643 4.390218,8.40336 0,0 0.162126,0.33305 0.162126,0.33305 v 0 c 0.279844,0.62811 1.925751,4.30347 2.237219,5.07132 0.158231,0.39008 0.197305,0.34611 0.01463,0.42224 -2.763504,-4.76501 -5.53203,-9.52712 -8.290515,-14.29504 -0.527063,-0.91101 -0.965594,-1.87556 -1.272672,-2.88288 -0.360714,-1.23107 -0.653188,-2.48258 -0.797592,-3.75936 -0.132289,-1.30937 -0.21245,-2.63259 -0.01021,-3.94025 0.212395,-1.114 0.547899,-2.19206 1.170697,-3.15225 0.493077,-0.75661 1.04758,-1.4689 1.712156,-2.0847 0.478062,-0.44525 0.975921,-0.86877 1.519139,-1.23362 0.304313,-0.20881 0.613251,-0.41067 0.922944,-0.6113 0,0 8.744979,15.19933 8.744979,15.19933 z"
       inkscape:connector-curvature="0" />
    <path
       style="opacity:1;fill:#532f2f;fill-opacity:1;stroke:none;stroke-width:1.32291667;stroke-linecap:butt;stroke-linejoin:miter;stroke-miterlimit:4;stroke-dasharray:none;stroke-dashoffset:0;stroke-opacity:1"
       id="path4991"
       d="m 36.248533,22.307076 c 0.249618,0.760509 0.189439,1.563592 0.138364,2.348785 -0.179182,1.615251 -0.582597,3.195096 -0.954876,4.773925 -0.422529,1.881071 -0.927682,3.74123 -1.47768,5.588532 -0.468222,1.58745 -1.055981,3.134831 -1.667229,4.671584 -0.448728,1.145651 -0.946365,2.271286 -1.488954,3.375382 -0.416292,0.85657 -0.906409,1.673148 -1.420518,2.473735 -0.364628,0.596599 -0.740789,1.183643 -1.172245,1.734275 -0.29831,0.363964 -0.571823,0.748218 -0.900009,1.086456 -0.262308,0.27705 -0.593471,0.408506 -0.968041,0.438047 -0.354887,-0.02556 -0.618938,-0.276471 -0.87571,-0.498208 -0.29738,-0.266136 -0.563673,-0.564129 -0.843124,-0.848463 -0.03016,-0.06531 -0.51304,-0.437632 -0.44004,-0.52732 0.03156,-0.03878 0.08393,-0.05434 0.125895,-0.08151 0.04666,-0.02323 0.449628,-0.258244 0.594346,-0.24271 0.158228,0.01699 0.332799,0.384704 0.400984,0.487301 -2.682127,-4.65161 -5.364254,-9.303218 -8.046382,-13.954826 0.509866,0.867995 1.099208,1.685721 1.686579,2.502075 0.983265,1.317974 1.922984,2.666103 2.811477,4.049572 3.686752,6.074981 7.350008,12.177244 10.602089,18.497031 0.564814,1.103659 1.091406,2.226159 1.594244,3.359219 0.363479,0.829143 0.694764,1.671629 1.020281,2.516195 0.249613,0.659363 0.499737,1.318522 0.756158,1.975271 0.01601,-7.94e-4 0.458292,1.093586 0.08302,0.652447 -0.161184,-0.189479 -0.305004,-0.393068 -0.457507,-0.5896 -2.48488,-3.560681 -1.285092,-1.840834 -3.599476,-5.159465 0,0 -0.206876,-0.307264 -0.206876,-0.307264 v 0 C 29.07275,56.854452 30.355116,58.807407 27.69507,54.769424 27.138008,53.866068 26.555086,52.964791 26.21114,51.952953 25.969707,51.309134 25.730904,50.664289 25.480395,50.023918 25.157383,49.202824 24.8222,48.38642 24.459005,47.582147 23.96481,46.493419 23.448049,45.414945 22.896087,44.354175 22.61286,43.813854 22.516805,43.625531 22.222508,43.085009 c -0.120853,-0.221964 -0.492927,-0.882566 -0.366249,-0.663872 13.762113,23.758554 9.969777,17.229262 7.069829,12.234971 -0.862615,-1.410396 -1.772734,-2.790706 -2.774529,-4.107111 -0.61976,-0.838716 -1.244183,-1.675574 -1.800054,-2.558817 -2.77841,-4.813734 -5.564334,-9.623137 -8.33523,-14.441196 -0.06647,-0.115581 -0.147749,-0.338937 -0.06976,-0.472374 0.139139,-0.238051 0.377671,-0.338479 0.601539,-0.484069 0.472369,-0.174426 0.596094,0.04373 0.926181,0.362218 0.276223,0.276981 0.55891,0.547859 0.816304,0.842986 0.186451,0.199109 0.41839,0.384524 0.536014,0.632889 0.01431,0.227025 -0.01026,0.20887 0.201816,0.03386 0.304139,-0.307522 0.582935,-0.639892 0.821499,-1.001313 0.38507,-0.551973 0.784226,-1.093795 1.172494,-1.643478 0.503043,-0.756237 0.979625,-1.530561 1.389178,-2.342147 0.53226,-1.06821 1.031897,-2.151893 1.501184,-3.249317 0.617959,-1.462042 1.213841,-2.934492 1.736676,-4.433616 0.589086,-1.786435 1.076791,-3.603468 1.500989,-5.435987 0.346721,-1.572859 0.679971,-3.153741 0.824201,-4.760504 0.04129,-0.503156 0.0689,-1.007583 0.04966,-1.511268 0,0 8.224282,12.220214 8.224282,12.220214 z"
       inkscape:connector-curvature="0" />
    <path
       style="opacity:1;fill:#532f2f;fill-opacity:1;stroke:none;stroke-width:1.32291667;stroke-linecap:butt;stroke-linejoin:miter;stroke-miterlimit:4;stroke-dasharray:none;stroke-dashoffset:0;stroke-opacity:1"
       id="path5003"
       d="m 27.786967,13.132669 c 0.459544,-0.376996 0.770303,-0.02009 1.086536,0.355764 3.648831,5.532183 6.839651,11.367965 9.829199,17.281301 0.825508,1.638014 1.654627,3.274126 2.500603,4.901674 0.796097,1.531887 1.624441,3.046468 2.483237,4.544023 3.027246,5.21739 0.02463,0.04358 -7.476271,-12.956601 -0.108918,-0.188775 0.219139,0.376793 0.328724,0.565182 0.29001,0.498565 0.580263,0.996989 0.87054,1.495401 0.458168,0.787775 0.918289,1.574421 1.371407,2.365121 0.345958,0.608705 0.688316,1.219462 1.040691,1.82449 0.185523,0.310578 0.370893,0.621268 0.558847,0.930386 0.108424,0.177152 0.217361,0.353946 0.329743,0.528619 0.05197,0.07702 0.103169,0.15545 0.161136,0.228184 0.0104,0.0182 0.03323,0.02606 0.05206,0.03528 10.240639,16.881896 12.054324,11.073524 7.443507,16.752996 -0.90256,1.130967 -1.734653,2.315567 -2.553105,3.50805 -1.123781,1.623737 -2.095272,3.342539 -3.018512,5.085733 -0.9491,1.831356 -1.805517,3.708321 -2.651906,5.58868 -0.70794,1.370478 -1.123439,2.909578 -2.022382,4.172553 -0.232873,0.184838 -0.519742,0.504362 -0.878872,0.433856 -0.258222,-0.05069 -0.543462,-0.14305 -0.708681,-0.347872 -1.278488,-1.584954 -2.380279,-3.304651 -3.570417,-4.956976 0,0 -0.197154,-0.31359 -0.197154,-0.31359 v 0 c -1.348719,-2.461302 -3.736517,-5.246663 -3.65905,-8.356383 0.0071,-0.283972 0.06001,-0.564941 0.09002,-0.84741 0.06557,-0.247705 0.114506,-0.500422 0.196712,-0.743114 0.432231,-1.276051 1.194245,-2.430108 1.684872,-3.68215 0.881496,-1.870689 1.755018,-3.746186 2.717149,-5.577316 0.947431,-1.770309 1.941764,-3.515522 3.065613,-5.181254 0.821436,-1.236451 1.650106,-2.468038 2.486139,-3.694671 0.206391,-0.302564 0.454874,-0.612161 0.614045,-0.945062 0.02254,-0.04714 0.04788,-0.09759 0.04615,-0.149818 -0.0011,-0.02997 -0.06822,-0.09844 -0.05353,-0.07229 2.849319,5.074994 5.705197,10.146305 8.557794,15.219458 C 48.40565,50.923126 48.297451,50.722431 48.188739,50.522015 48.058241,50.282194 47.926582,50.042987 47.793904,49.804364 47.630455,49.512555 47.46563,49.221527 47.299636,48.931155 47.080087,48.548001 46.858763,48.165863 46.637215,47.783863 46.386617,47.361808 46.127114,46.94525 45.867888,46.528455 45.421885,45.792829 44.987077,45.050418 44.558325,44.304621 41.169457,38.421283 37.738399,32.562114 34.379855,26.66143 33.553333,25.179827 32.74891,23.686053 31.974782,22.176324 31.160987,20.591096 30.361207,18.998815 29.570293,17.402045 29.243914,16.75505 28.921276,16.105707 28.579064,15.466851 c -0.09541,-0.178111 -0.392864,-0.706263 -0.2916,-0.531415 7.628223,13.171418 10.197073,17.978407 7.538119,13.013567 -0.227536,-0.423177 -0.463928,-0.841552 -0.624419,-1.296254 0,0 -7.414197,-13.52008 -7.414197,-13.52008 z"
       inkscape:connector-curvature="0" />
    <path
       style="opacity:1;fill:#532f2f;fill-opacity:1;stroke:none;stroke-width:1.32291667;stroke-linecap:butt;stroke-linejoin:miter;stroke-miterlimit:4;stroke-dasharray:none;stroke-dashoffset:0;stroke-opacity:1"
       id="path5009"
       d="m 39.073036,69.703632 c 0.003,0.594193 -0.150944,1.177755 -0.293388,1.750557 -0.300297,1.144238 -0.616373,2.284095 -0.943573,3.420898 -0.457742,1.657909 -1.094811,3.255442 -1.779479,4.830345 -0.749633,1.68488 -1.657652,3.29053 -2.616091,4.863536 -0.813986,1.338718 -1.74865,2.59602 -2.715589,3.826555 -0.71719,0.910757 -1.479047,1.783652 -2.20663,2.685939 -0.472133,0.566745 -0.858925,1.197909 -1.364996,1.736267 -0.952107,0.737225 -1.317575,0.025 -1.810796,-0.761219 -4.177551,-6.812643 -8.18245,-13.714529 -11.749076,-20.857879 0.707755,1.101013 -1.456166,-2.727071 -0.953997,-2.132068 1.055753,1.250926 1.953287,2.627241 2.92993,3.94086 0,0 0.20918,0.305699 0.20918,0.305699 v 0 c 2.312713,3.558847 4.73432,7.014909 6.650034,10.803049 0.791847,1.480812 1.578599,2.964593 2.40287,4.427757 0.221275,0.392784 0.898316,1.563616 0.67282,1.173239 C 17.119776,75.202022 15.013491,71.604131 18.020813,76.74521 c 0.07722,0.133752 0.375399,0.627129 0.445666,0.819777 0.08232,0.225687 -0.04724,0.559726 -0.02389,0.593656 0.01765,0.02564 0.06227,7.94e-4 0.0934,0.0011 0.577651,-0.2974 1.001422,-0.840537 1.454867,-1.289722 0.768698,-0.837798 1.505981,-1.702943 2.247477,-2.564607 0.963392,-1.172143 1.882782,-2.381154 2.692881,-3.665736 0.948523,-1.528053 1.841114,-3.093476 2.54363,-4.752466 0.655458,-1.558968 1.236618,-3.146785 1.6935,-4.776341 0.322059,-1.127336 0.631296,-2.258208 0.944603,-3.387992 0.126343,-0.448601 0.235823,-0.91657 0.433141,-1.338868 0,0 8.526954,13.319553 8.526954,13.319553 z"
       inkscape:connector-curvature="0" />
    <path
       style="opacity:1;fill:#532f2f;fill-opacity:1;stroke:none;stroke-width:1.32291667;stroke-linecap:butt;stroke-linejoin:miter;stroke-miterlimit:4;stroke-dasharray:none;stroke-dashoffset:0;stroke-opacity:1"
       id="path5013"
       d="m 33.75452,58.276971 c 2.719581,4.583329 5.843794,8.725267 7.589538,13.665528 0.478539,1.365702 0.850773,2.764745 1.267468,4.149801 0.520012,1.851597 1.173512,3.659519 1.88622,5.444416 0.712004,1.766364 1.544722,3.479739 2.386312,5.186905 0.632261,1.274453 1.280882,2.540582 1.935742,3.803531 0.468894,0.912405 0.950901,1.817923 1.429414,2.725282 0.318341,0.605883 0.634261,1.213033 0.951081,1.819709 0.249087,0.488942 0.520917,0.96551 0.789451,1.443863 0.207425,0.364242 0.413073,0.729478 0.61608,1.096203 0.237098,0.351568 -0.01701,0.616474 -0.258414,0.88146 -0.5749,0.530413 -1.209188,0.992708 -1.81719,1.484249 -1.291248,1.022392 -2.46812,2.169132 -3.557338,3.401842 -1.328357,1.54654 -2.355589,3.30963 -3.295894,5.10935 -0.827664,1.62914 -1.527723,3.3181 -2.200852,5.01554 -0.544039,1.33672 -0.97037,2.71942 -1.535406,4.0472 -0.199583,0.40549 -1.01093,1.60847 -1.61776,1.36356 -0.25491,-0.10288 -0.450575,-0.31502 -0.675862,-0.47253 -1.115367,-1.5925 -2.230734,-3.185 -3.346098,-4.7775 0,0 -0.197208,-0.31356 -0.197208,-0.31356 v 0 c -1.03991,-1.84469 -2.079823,-3.68938 -3.119733,-5.53407 -0.136213,-0.42904 -0.305742,-0.8489 -0.408639,-1.28712 -0.277778,-1.18303 -0.02794,-2.48317 0.205362,-3.64605 0.442079,-1.38218 1.023532,-2.71525 1.56133,-4.062061 0.713758,-1.68884 1.455721,-3.368016 2.326576,-4.983014 1.009865,-1.830813 2.096059,-3.625913 3.451072,-5.226775 1.110972,-1.286605 2.280502,-2.518717 3.537818,-3.664376 0.473466,-0.444788 1.118568,-0.898506 1.396775,-1.493636 -0.108342,-0.145987 -0.352121,-0.163325 -0.392078,-0.384022 -0.07285,-0.162758 -0.142574,-0.326765 -0.204357,-0.494091 -0.129389,-0.310509 -0.264861,-0.617458 -0.426519,-0.913116 -0.28386,-0.557623 -0.568724,-1.114737 -0.850844,-1.673244 -0.408421,-0.812982 -0.813316,-1.62773 -1.229632,-2.436736 -0.60819,-1.201544 -1.209448,-2.406631 -1.789981,-3.621836 -0.792382,-1.671367 -1.569027,-3.351593 -2.238793,-5.076711 -0.689962,-1.805075 -1.328335,-3.630205 -1.832507,-5.497063 -0.324342,-1.229412 -0.663932,-2.454621 -0.991057,-3.683272 -1.428787,-4.890265 -2.798149,-3.363767 6.365724,10.525506 0,0 -5.709801,-11.923162 -5.709801,-11.923162 z"
       inkscape:connector-curvature="0" />
    <path
       style="opacity:1;fill:#532f2f;fill-opacity:1;stroke:none;stroke-width:1.32291667;stroke-linecap:butt;stroke-linejoin:miter;stroke-miterlimit:4;stroke-dasharray:none;stroke-dashoffset:0;stroke-opacity:1"
       id="path5019"
       d="m -41.958561,97.39088 c 0.274375,0.603311 0.533683,1.212673 0.81648,1.812327 2.648667,4.816983 6.23206,10.998763 -6.749912,-11.692424 -0.101201,-0.176887 0.222768,0.341431 0.340577,0.507719 0.131553,0.18569 0.271529,0.365271 0.407292,0.547908 1.102362,1.439018 2.471409,2.623849 3.883829,3.745113 2.074611,1.600856 4.448736,2.707463 6.863635,3.684185 3.138612,1.211321 6.439988,1.896833 9.726435,2.56649 3.439422,0.679943 6.90215,1.23267 10.365615,1.773632 3.502119,0.54178 7.0186149,0.97899 10.538106,1.38955 3.2456245,0.36619 6.4994683,0.65245 9.7556663,0.90519 2.7869181,0.21474 5.5767988,0.38857 8.3679917,0.53667 2.249043,0.1194 4.499256,0.21618 6.749823,0.30167 1.726823,0.0704 3.454504,0.11656 5.182069,0.16424 1.362695,0.043 2.726166,0.0519 4.088998,0.0871 0.754906,0.08 1.602311,0.0304 2.297819,0.39648 0.751371,0.39544 1.011467,0.80385 1.630198,1.45124 1.181359,1.95113 2.362716,3.90227 3.544075,5.8534 0,0 0.17657,0.32563 0.17657,0.32563 v 0 c 0.932244,1.9484 1.86449,3.89679 2.796736,5.84519 0.05385,0.44393 0.286297,1.019 -0.07716,1.42473 -0.34953,0.3902 -1.457558,0.2547 -1.918637,0.30799 -1.380045,-0.0274 -2.758979,-0.0943 -4.137985,-0.15248 -1.754849,-0.0789 -3.508745,-0.17658 -5.261988,-0.28539 -2.282207,-0.14492 -4.564107,-0.29423 -6.845155,-0.45654 -2.821101,-0.20437 -5.642351,-0.4087 -8.459293,-0.66542 -3.2868492,-0.30596 -6.572295,-0.62919 -9.8500023,-1.0228 -3.5523015,-0.42337 -7.1007892,-0.88753 -10.6293238,-1.48026 -3.5425419,-0.60327 -7.0718739,-1.28218 -10.5771259,-2.07589 -3.388931,-0.79378 -6.767435,-1.66136 -10.036627,-2.86879 -2.478434,-0.9803 -4.914204,-2.08454 -7.089656,-3.64677 -1.508638,-1.10565 -2.941143,-2.31958 -4.130958,-3.77231 -3.965911,-4.973361 -7.16724,-10.619215 -9.594654,-16.491274 -0.05295,-0.207116 -0.280535,-0.868373 0.08174,-0.909399 0,0 7.744822,11.893343 7.744822,11.893343 z"
       inkscape:connector-curvature="0" />
    <path
       style="opacity:1;fill:#532f2f;fill-opacity:1;stroke:none;stroke-width:1.32291667;stroke-linecap:butt;stroke-linejoin:miter;stroke-miterlimit:4;stroke-dasharray:none;stroke-dashoffset:0;stroke-opacity:1"
       id="path5039"
       d="m 42.871143,60.562405 c 0.511265,-0.152109 1.077019,-0.09853 1.604063,-0.07702 1.378001,0.06304 2.756829,0.113578 4.135864,0.15104 2.386031,0.10378 4.773149,0.157417 7.161321,0.161126 2.866157,-0.0013 5.732351,-0.02141 8.59822,-0.06202 2.731735,-0.03377 5.463447,-0.07101 8.195037,-0.115445 2.190184,-0.03815 4.380151,-0.08715 6.569967,-0.142264 1.581655,-0.04527 3.163027,-0.115835 4.745138,-0.06265 0.227078,0.03019 0.457112,0.04317 0.68123,0.09056 3.542326,0.74913 4.968896,4.890291 6.592607,7.521419 0,0 0.17716,0.325305 0.17716,0.325305 v 0 c 0.888674,1.883383 1.871874,3.725 2.666024,5.65015 0.113932,0.276191 0.07586,0.599803 0.03421,0.895652 -0.112009,0.795541 -0.966515,1.091454 -1.633818,1.17815 -1.579158,0.100875 -3.161617,0.06662 -4.743148,0.06751 -2.216354,0.0031 -4.43271,0.0064 -6.649067,0.0062 -2.757564,2.65e-4 -5.515104,-0.0058 -8.272634,-0.0191 -2.892449,-0.01945 -5.785027,-0.0214 -8.677341,-0.05846 -2.405597,-0.0449 -4.812186,-0.07497 -7.215447,-0.197792 -1.406014,-0.08768 -2.812521,-0.16764 -4.217487,-0.270097 -0.604565,-0.05072 -1.224521,-0.103034 -1.799942,-0.307083 0,0 -7.951952,-14.735146 -7.951952,-14.735146 z"
       inkscape:connector-curvature="0" />
    <path
       style="opacity:1;fill:#532f2f;fill-opacity:1;stroke:none;stroke-width:1.32291667;stroke-linecap:butt;stroke-linejoin:miter;stroke-miterlimit:4;stroke-dasharray:none;stroke-dashoffset:0;stroke-opacity:1"
       id="path5061"
       d="m 40.107367,76.75446 c 0.322993,0.349573 0.677346,0.66729 1.023165,0.993709 0.788416,0.760206 1.647002,1.439629 2.540328,2.071102 1.078301,0.803037 2.258488,1.433201 3.462342,2.021515 1.217716,0.588002 2.520469,0.912529 3.848082,1.127016 1.229847,0.145995 2.465514,0.06282 3.650401,-0.293997 0.949454,-0.499498 1.347057,-1.43384 1.600345,-2.420926 0.259107,-1.129599 0.09384,-2.271348 -0.136218,-3.388461 -0.305313,-1.309042 -0.851556,-2.541037 -1.42141,-3.752368 -0.09665,-0.197459 -0.193191,-0.394965 -0.289941,-0.592371 -0.18491,-0.377282 -0.306126,-0.617453 -0.479174,-0.990769 -0.05856,-0.126339 -0.130794,-0.247774 -0.171368,-0.380984 -0.0085,-0.02778 0.0087,-0.100814 0.03047,-0.08162 0.149738,0.131865 0.260839,0.302003 0.391258,0.453003 0.748125,1.056794 1.49625,2.113587 2.244375,3.170381 0,0 0.209063,0.305779 0.209063,0.305779 v 0 c 0.903471,1.358907 1.806938,2.717818 2.710405,4.076726 0.994495,1.588849 1.987691,3.185184 2.744563,4.905142 0.511593,1.170035 0.986838,2.365523 1.131702,3.645442 0.09524,1.077029 0.06097,2.156709 -0.472247,3.128886 -0.800081,1.071658 -1.507434,1.191154 -2.779522,1.412992 -1.280168,0.293346 -2.58088,0.429998 -3.894037,0.286861 -1.40126,-0.145908 -2.764618,-0.485469 -4.034631,-1.111476 -1.281041,-0.622813 -2.500564,-1.369121 -3.657854,-2.199627 -0.911077,-0.685144 -1.819346,-1.377355 -2.655538,-2.154026 -0.369158,-0.350758 -0.727136,-0.713554 -1.086176,-1.074369 0,0 -4.508383,-9.15756 -4.508383,-9.15756 z"
       inkscape:connector-curvature="0" />
    <path
       style="opacity:1;fill:#532f2f;fill-opacity:1;stroke:none;stroke-width:1.32291667;stroke-linecap:butt;stroke-linejoin:miter;stroke-miterlimit:4;stroke-dasharray:none;stroke-dashoffset:0;stroke-opacity:1"
       id="path5067"
       d="m 235.12173,30.119976 c -0.18656,0.631994 -0.46728,1.234345 -0.73088,1.837221 -0.54936,1.30125 -1.17086,2.568948 -1.81994,3.822796 -0.77131,1.436047 -1.64947,2.810078 -2.55837,4.161872 -0.83953,1.227873 -1.73369,2.416733 -2.62284,3.608707 -0.67138,0.876221 -1.3545,1.743316 -2.02914,2.61706 -0.47074,0.594098 -0.92487,1.201267 -1.40458,1.788176 -0.31895,0.383368 -0.65563,0.751321 -0.82526,1.226751 -0.12941,0.564012 0.14841,1.069721 0.40075,1.555366 3.07673,5.009354 6.24356,10.89727 -7.85268,-13.672983 -0.11335,-0.197573 0.24432,0.384556 0.37138,0.573608 0.30306,0.450959 0.57715,0.822204 0.89636,1.264185 1.0893,1.463413 2.13524,2.957245 3.13791,4.481131 3.93214,6.258142 7.50098,12.737785 11.16232,19.156548 0.51783,0.934153 1.07406,1.848403 1.55458,2.802794 0.012,0.04296 0.066,0.09586 0.036,0.128882 -0.0256,0.02815 -0.0674,-0.03802 -0.0929,-0.06624 -0.0992,-0.109794 -0.20153,-0.219197 -0.27889,-0.345318 -1.78411,-2.908533 -3.36674,-5.946164 -5.3035,-8.755356 -0.75597,-1.096492 1.16347,2.396127 1.7452,3.594192 0,0 0.15979,0.33418 0.15979,0.33418 v 0 c 0.48273,1.033893 2.08486,4.048585 1.44819,3.101678 -2.55639,-3.802118 -4.68508,-7.93038 -7.18656,-11.788555 -0.65014,-1.091475 -1.27628,-2.196759 -1.90216,-3.302283 -3.07906,-5.389618 -0.41417,-0.722683 7.88962,13.651296 0.13654,0.23635 -0.27193,-0.473356 -0.40914,-0.709314 -0.44582,-0.766696 -0.89997,-1.528579 -1.37037,-2.280504 -0.9698,-1.522693 -1.9819,-3.018055 -3.07171,-4.458086 -4.19005,-5.641227 -7.93814,-11.695928 -10.69394,-18.163172 -0.18019,-0.697683 -0.20888,-1.364428 0.16863,-2.008063 0.29407,-0.469927 0.66393,-0.876298 1.04702,-1.27567 0.49648,-0.539385 1.01716,-1.05573 1.51935,-1.589808 0.73729,-0.76794 1.45681,-1.551791 2.12292,-2.383247 0.92041,-1.124638 1.82065,-2.267397 2.63555,-3.471828 0.89287,-1.327299 1.75069,-2.67899 2.48983,-4.099387 0.64835,-1.215249 1.26273,-2.448852 1.81254,-3.712195 0.24057,-0.566404 0.46902,-1.138172 0.71162,-1.703414 0,0 8.84329,14.078979 8.84329,14.078979 z"
       inkscape:connector-curvature="0" />
    <path
       style="opacity:1;fill:#532f2f;fill-opacity:1;stroke:none;stroke-width:1.32291667;stroke-linecap:butt;stroke-linejoin:miter;stroke-miterlimit:4;stroke-dasharray:none;stroke-dashoffset:0;stroke-opacity:1"
       id="path5071"
       d="m 227.96132,21.862279 c 0.47394,-0.188949 0.85848,0.473542 1.08638,0.781928 3.42366,5.601339 7.05175,11.182401 9.64729,17.239976 0.67967,1.629439 1.32279,3.273758 1.99262,4.907251 0.58751,1.444746 1.19938,2.879219 1.82397,4.308247 0.47935,1.076481 0.97212,2.14689 1.47107,3.214391 0.36748,0.789369 0.74285,1.574932 1.12273,2.358385 0.28072,0.553805 0.35039,1.073883 0.14077,1.656474 -0.36508,0.74793 -0.9459,1.357231 -1.49932,1.967862 -1.01081,1.07877 -2.01176,2.16656 -2.99657,3.269118 -1.10064,1.228161 -2.11985,2.5253 -3.11263,3.841128 -0.80869,1.072396 -1.57068,2.178315 -2.31531,3.295743 -0.55832,0.857879 -0.93489,1.624666 -1.90907,2.049592 -1.42861,-0.103497 -1.72199,-1.139979 -2.64498,-2.386825 -0.79196,-1.069819 -1.54307,-2.169276 -2.3146,-3.253917 0,0 -0.19237,-0.316548 -0.19237,-0.316548 v 0 c -0.65295,-1.258792 -1.32591,-2.507408 -1.95886,-3.776376 -0.91745,-1.839339 -1.43931,-2.458419 -1.3944,-4.249248 0.24822,-1.175147 0.67921,-1.939028 1.41726,-2.881501 0.78021,-1.093274 1.57944,-2.172824 2.40874,-3.229512 1.02794,-1.306181 2.08345,-2.590109 3.19153,-3.829552 0.98491,-1.106065 1.99097,-2.194187 2.94068,-3.330946 0.42285,-0.520724 0.9831,-1.07914 1.06153,-1.774579 -0.0615,-0.432056 -0.27885,-0.816017 -0.449,-1.21318 -0.23388,-0.596175 -0.477,-1.188472 -0.72763,-1.777828 -0.4069,-0.963997 -0.82454,-1.92337 -1.23409,-2.886245 -0.58887,-1.395195 -1.16732,-2.794735 -1.73098,-4.200329 -0.64818,-1.616519 -1.28432,-3.238264 -1.97162,-4.838702 -0.30724,-0.689426 -0.61465,-1.378169 -0.958,-2.050665 -0.0975,-0.19094 -0.40867,-0.753765 -0.30103,-0.56836 7.05727,12.155867 9.88326,17.31308 7.19701,12.419244 -0.35628,-0.615381 -0.72807,-1.220375 -1.12512,-1.810377 0,0 -6.666,-12.934649 -6.666,-12.934649 z"
       inkscape:connector-curvature="0" />
    <path
       style="opacity:1;fill:#532f2f;fill-opacity:1;stroke:none;stroke-width:1.32291667;stroke-linecap:butt;stroke-linejoin:miter;stroke-miterlimit:4;stroke-dasharray:none;stroke-dashoffset:0;stroke-opacity:1"
       id="path5075"
       d="m 237.46799,18.736349 c 0.71217,-0.05227 1.42991,-0.01755 2.14461,-0.03539 1.73773,-0.03799 3.47609,-0.02707 5.21387,3.97e-4 2.42988,0.05022 4.85893,0.136071 7.28792,0.217963 2.54166,0.08864 5.08388,0.159376 7.62591,0.236066 2.30267,0.06107 4.60478,0.139684 6.90689,0.218282 2.02483,0.07583 4.04973,0.14825 6.07509,0.20799 1.70694,0.0536 3.41429,0.09015 5.12168,0.125032 1.364,0.02721 2.72806,0.05167 4.0922,0.0726 1.06796,0.01753 2.13595,0.03149 3.20395,0.04597 0.79644,0.0063 1.59292,0.0089 2.38939,0.0082 0.86601,-0.01432 1.17298,-0.03919 1.87884,0.515841 1.89904,2.082283 3.04522,4.985238 4.32324,7.327336 0,0 0.17176,0.328179 0.17176,0.328179 v 0 c 1.01399,1.955842 2.0419,3.904535 3.04197,5.867524 0.14452,0.283652 0.28088,0.572611 0.39124,0.87122 0.0543,0.146894 0.0669,0.305982 0.1003,0.458973 -0.0161,0.09021 -0.006,0.188989 -0.048,0.270642 -0.16094,0.316116 -1.01698,0.15839 -1.29881,0.167941 -0.81296,-0.03573 -1.6261,-0.06818 -2.4393,-0.09828 -1.08119,-0.03488 -2.16233,-0.0723 -3.24337,-0.111892 -1.38163,-0.05224 -2.76325,-0.104172 -4.14467,-0.161362 -1.72686,-0.07171 -3.45355,-0.147026 -5.18028,-0.221345 -2.04134,-0.09305 -4.08268,-0.186108 -6.12351,-0.289346 -2.31709,-0.115652 -4.63431,-0.228742 -6.95265,-0.31674 -2.54952,-0.099 -5.09914,-0.195043 -7.64913,-0.281125 -2.41136,-0.07953 -4.82306,-0.157076 -7.23594,-0.167876 -1.72936,-7.94e-4 -3.45832,0.02257 -5.18762,0.02704 -0.75655,-0.01334 -1.52493,0.02879 -2.27379,-0.09047 0,0 -8.19177,-15.193397 -8.19177,-15.193397 z"
       inkscape:connector-curvature="0" />
    <path
       style="opacity:1;fill:#532f2f;fill-opacity:1;stroke:none;stroke-width:1.32291663;stroke-linecap:butt;stroke-linejoin:miter;stroke-miterlimit:4;stroke-dasharray:none;stroke-dashoffset:0;stroke-opacity:1"
       id="path5107"
       d="m 248.32453,24.514816 c 0.41795,0.252175 0.75579,0.625648 1.10069,0.966838 0.73722,0.694494 1.4729,1.38904 2.17715,2.117163 0.86546,0.899618 1.61182,1.90079 2.31847,2.926921 2.94428,4.574826 0.54071,0.822428 7.62473,13.135586 0.40579,0.705316 0.71139,1.466533 0.99387,2.227199 0.33738,0.961959 0.4936,1.96424 0.47363,2.980854 -0.0239,0.850522 -0.25454,1.635694 -0.67001,2.371273 -0.45862,0.716796 -1.14981,1.168654 -1.89799,1.535535 -0.86488,0.386393 -1.79407,0.534551 -2.73116,0.599496 -1.02161,0.04905 -2.0351,-0.09911 -3.03413,-0.296177 -1.11694,-0.230095 -2.19186,-0.611167 -3.25553,-1.014608 -1.14357,-0.45216 -2.23986,-1.006841 -3.30413,-1.620341 -1.11314,-0.65424 -2.11292,-1.471271 -3.06903,-2.333421 -1.19319,-1.07741 -2.26769,-2.27425 -3.32265,-3.484443 -1.63182,-1.840982 -3.15602,-3.780234 -4.46414,-5.867027 -0.68898,-1.099106 -1.33566,-2.22417 -2.00349,-3.336256 0,0 -0.16496,-0.331657 -0.16496,-0.331657 v 0 c -0.085,-0.24683 -0.99349,-2.290628 -0.85725,-3.123507 0.10362,-0.633468 1.38274,0.418576 1.5138,0.531283 1.03088,0.856216 1.94849,1.830549 2.91697,2.754839 0.91459,0.824069 1.84716,1.633088 2.89178,2.291416 1.00372,0.62557 2.04767,1.184265 3.15641,1.602968 1.01856,0.403664 2.05432,0.769358 3.12275,1.018794 0.93989,0.207719 1.89104,0.386312 2.85838,0.369316 0.84391,-0.03023 1.68896,-0.128236 2.47062,-0.470414 0.62071,-0.294566 1.18009,-0.663686 1.51384,-1.286576 0.31328,-0.612627 0.50048,-1.276363 0.4836,-1.969836 -0.0538,-0.924221 -0.22683,-1.828377 -0.5835,-2.687868 -0.20979,-0.510095 -0.43108,-1.008425 -0.68958,-1.496237 -0.0929,-0.175347 -0.38691,-0.693049 -0.28737,-0.521375 9.73403,16.788726 8.75968,15.115429 6.33061,10.947466 -0.70749,-1.141161 -1.4692,-2.247984 -2.35597,-3.259349 -0.82004,-0.946851 -1.65788,-1.878091 -2.49944,-2.805834 -0.5252,-0.579467 -1.04601,-1.164479 -1.50314,-1.800278 0,0 -5.25383,-10.671743 -5.25383,-10.671743 z"
       inkscape:connector-curvature="0" />
    <path
       style="opacity:1;fill:#532f2f;fill-opacity:1;stroke:none;stroke-width:1.32291667;stroke-linecap:butt;stroke-linejoin:miter;stroke-miterlimit:4;stroke-dasharray:none;stroke-dashoffset:0;stroke-opacity:1"
       id="path5109"
       d="m 222.14424,81.145075 c 0.42498,-0.355767 0.86908,-0.686583 1.31313,-1.017868 0.79684,-0.578483 1.58094,-1.1742 2.35483,-1.782974 0.76737,-0.597191 1.51739,-1.215652 2.24898,-1.856089 0.63726,-0.567667 1.27414,-1.13587 1.89929,-1.716887 0.48431,-0.447908 0.9693,-0.895456 1.44784,-1.34955 0.31937,-0.337521 0.72131,-0.559308 1.12113,-0.784166 0.27306,-0.244123 0.65388,-0.329129 0.99684,-0.21503 0.12799,0.13566 0.2706,0.258884 0.38397,0.406985 1.4552,1.901036 2.59993,4.020952 3.87095,6.049759 0,0 0.1933,0.315978 0.1933,0.315978 v 0 c 1.25834,2.158836 2.98479,4.554199 3.809,7.054374 0.003,0.452104 -0.12451,0.924806 -0.44969,1.254768 -0.27991,0.397269 -0.55408,0.801452 -0.93784,1.108665 -0.49664,0.430392 -0.99848,0.854633 -1.49496,1.285182 -0.65217,0.556516 -1.29985,1.119076 -1.97795,1.644194 -0.76871,0.604258 -1.54716,1.195883 -2.32399,1.789549 -0.78807,0.595712 -1.57794,1.18898 -2.36565,1.785171 -0.4331,0.328432 -0.8681,0.655005 -1.29212,0.995053 0,0 -8.79706,-14.967114 -8.79706,-14.967114 z"
       inkscape:connector-curvature="0" />
    <path
       style="opacity:1;fill:#532f2f;fill-opacity:1;stroke:none;stroke-width:1.32291663;stroke-linecap:butt;stroke-linejoin:miter;stroke-miterlimit:4;stroke-dasharray:none;stroke-dashoffset:0;stroke-opacity:1"
       id="path5111"
       d="m 241.04918,112.22492 c -0.58002,0.23782 -1.12084,0.56051 -1.66044,0.87687 -0.8057,0.47858 -1.58675,0.99669 -2.36925,1.51184 -0.67807,0.45022 -1.3635,0.88909 -2.04929,1.32738 -0.55375,0.35192 -1.11574,0.69057 -1.67498,1.03361 -0.39241,0.23098 -0.77857,0.4725 -1.17192,0.70185 -0.31764,0.17329 -0.35624,0.35641 -0.3289,0.69377 0.10484,0.86014 0.28601,1.70907 0.45445,2.55841 0.36226,1.75499 0.70539,3.51353 1.01906,5.27785 0.41472,2.38653 0.71152,4.79087 0.98236,7.19724 0.2801,2.63082 0.52296,5.26545 0.76251,7.90022 0.24875,2.54218 0.40659,5.09103 0.49345,7.6435 0.0708,2.27467 0.0626,4.5505 0.0549,6.8259 -0.01,1.87092 -0.0138,3.74185 -0.0235,5.61276 -0.004,1.42076 -0.0121,2.84156 -0.0322,4.26219 -0.0476,0.97618 0.0569,1.9725 -0.137,2.93576 -0.0375,0.10121 -0.11789,0.40108 -0.24722,0.46778 -0.26322,0.13577 -0.60754,-0.22609 -0.71377,-0.34709 -0.45967,-0.52358 -0.87714,-1.08351 -1.28789,-1.64629 -0.80915,-1.10865 -1.58051,-2.24439 -2.37077,-3.36658 0,0 -0.19973,-0.31195 -0.19973,-0.31195 v 0 c -0.7671,-1.30035 -1.54837,-2.59244 -2.30129,-3.90105 -0.91986,-1.59877 -1.88477,-3.1834 -2.04678,-5.05441 -0.0904,-1.03861 -0.0145,-2.07807 0.01,-3.11871 0.0331,-1.38649 0.065,-2.77299 0.0903,-4.15965 0.0301,-1.84096 0.0554,-3.682 0.0779,-5.52307 0.0237,-2.24348 0.0344,-4.48767 -0.0359,-6.73053 -0.0958,-2.53077 -0.26404,-5.05726 -0.50566,-7.57853 -0.23867,-2.63082 -0.47455,-5.26236 -0.7799,-7.88648 -0.29753,-2.43037 -0.62936,-4.8576 -1.09334,-7.26268 -0.35456,-1.81821 -0.74228,-3.62933 -1.14125,-5.43829 -0.19703,-0.95351 -0.48071,-1.95322 -0.28196,-2.92763 0.18512,-0.46924 0.47385,-0.83174 0.92246,-1.0768 0.38306,-0.24645 0.77371,-0.48097 1.15772,-0.72597 0.55762,-0.34174 1.11285,-0.68741 1.67269,-1.02555 0.69132,-0.41926 1.3733,-0.85355 2.05688,-1.285288 0.79666,-0.505574 1.59523,-1.008158 2.38647,-1.522249 0.5367,-0.344328 1.08009,-0.679767 1.60216,-1.045995 0,0 8.71,15.107862 8.71,15.107862 z"
       inkscape:connector-curvature="0" />
    <path
       style="opacity:1;fill:#532f2f;fill-opacity:1;stroke:none;stroke-width:1.32291667;stroke-linecap:butt;stroke-linejoin:miter;stroke-miterlimit:4;stroke-dasharray:none;stroke-dashoffset:0;stroke-opacity:1"
       id="path5119"
       d="m 237.15932,146.81941 c 0.32443,0.0956 0.58015,0.32618 0.83206,0.54078 0.55284,0.50775 1.02991,1.0894 1.49706,1.67476 3.86724,5.32785 7.07618,11.13997 9.96962,17.05084 0.55139,1.12126 0.94395,2.30405 1.24313,3.51427 0.28615,1.23798 0.37039,2.50231 0.34868,3.76868 -0.0436,1.25218 -0.27979,2.48225 -0.57435,3.6962 -0.30133,1.24558 -0.79713,2.42399 -1.37538,3.56297 -0.67907,1.23911 -1.52784,2.37072 -2.39912,3.47867 -0.92345,1.13258 -1.872,2.24434 -2.80693,3.36742 -0.98344,1.18124 -1.93701,2.3868 -2.88316,3.59797 -0.98829,1.25947 -1.95841,2.53253 -2.8752,3.84508 -0.71864,0.85975 -1.23063,2.20936 -2.05196,2.95586 -0.13544,0.1231 -0.29986,0.20995 -0.44979,0.31492 -0.16754,0.0498 -0.34077,0.21525 -0.50263,0.14929 -1.32264,-0.53894 -3.70763,-4.123 -3.74851,-4.17433 0,0 -0.20115,-0.31104 -0.20115,-0.31104 v 0 c -1.31966,-2.45988 -2.7557,-4.63039 -3.54006,-7.2814 -0.13434,-0.45401 -0.14407,-0.93591 -0.2161,-1.40387 -0.01,-0.40163 -0.0492,-0.80364 -0.0293,-1.2049 0.0749,-1.5075 0.79309,-2.85558 1.60935,-4.08655 0.92399,-1.32936 1.90744,-2.61508 2.90224,-3.89208 0.95103,-1.22097 1.9116,-2.43463 2.89727,-3.6279 0.92952,-1.11909 1.87187,-2.22759 2.78701,-3.35854 0.83764,-1.05303 1.67565,-2.11742 2.28669,-3.32313 0.54002,-1.07292 0.99242,-2.18577 1.25684,-3.36169 0.25994,-1.13746 0.47592,-2.29056 0.49193,-3.46129 -0.007,-1.17147 -0.105,-2.34159 -0.42895,-3.47317 -0.3166,-1.0969 -0.70612,-2.17233 -1.23748,-3.18563 -2.79807,-5.234 -0.20417,-0.36927 7.83509,13.51657 0.0933,0.16111 -0.17828,-0.32693 -0.27123,-0.48823 -0.26409,-0.45826 -0.54981,-0.90383 -0.84902,-1.33986 -0.46026,-0.65799 -0.9447,-1.29885 -1.47468,-1.9028 -0.25159,-0.28772 -0.50974,-0.56965 -0.77061,-0.84877 0,0 -7.27139,-14.3091 -7.27139,-14.3091 z"
       inkscape:connector-curvature="0" />
    <path
       style="opacity:1;fill:#532f2f;fill-opacity:1;stroke:none;stroke-width:1.32291667;stroke-linecap:butt;stroke-linejoin:miter;stroke-miterlimit:4;stroke-dasharray:none;stroke-dashoffset:0;stroke-opacity:1"
       id="path5137"
       d="m 222.72203,155.16613 c 0.16154,0.54042 0.0549,1.08844 -0.0493,1.62862 -0.25663,1.06178 -0.74292,2.052 -1.2171,3.03047 -0.54538,1.08775 -1.14373,2.1476 -1.73106,3.2129 -0.40068,0.74699 -0.80563,1.48703 -1.05212,2.30067 -0.16282,0.67761 0.0191,1.33659 0.24937,1.97322 0.0496,0.11893 0.0962,0.23917 0.14877,0.3568 0.18962,0.42401 0.41292,0.83329 0.64602,1.23465 0.0939,0.16168 0.38089,0.64359 0.28757,0.48157 -2.72099,-4.72406 -5.44708,-9.44518 -8.17062,-14.16778 0.85966,1.41699 1.81172,2.77531 2.74106,4.1469 1.20891,1.77049 2.38091,3.5654 3.51883,5.38222 4.07112,6.74379 8.13016,13.5082 11.7567,20.50278 0.96163,1.86699 1.79434,3.79537 2.60535,5.73123 0.6503,1.56881 1.29312,3.14079 1.92829,4.71579 0.22113,0.56237 0.45441,1.12026 0.6638,1.68721 0.10855,0.29389 0.25102,0.60011 0.24819,0.91712 -0.0349,7.9e-4 -0.0801,0.0273 -0.10461,0.003 -0.19719,-0.1994 -0.37157,-0.42141 -0.53499,-0.64932 -1.01568,-1.41655 -2.00068,-2.85485 -3.00102,-4.28228 0,0 -0.20836,-0.30626 -0.20836,-0.30626 v 0 c -1.63157,-2.46333 -3.36925,-4.88726 -4.78875,-7.48826 -0.70353,-1.33243 -1.34506,-2.69514 -1.9005,-4.09658 -0.63095,-1.54697 -1.246,-3.10045 -1.89195,-4.64127 -0.80876,-1.90593 -1.65141,-3.79869 -2.62202,-5.62892 -0.46759,-0.88262 -0.56138,-1.06947 -1.04623,-1.94515 -0.17949,-0.32416 -0.72991,-1.28993 -0.54421,-0.96929 13.93641,24.06329 9.79831,16.84679 6.77194,11.75884 -1.11867,-1.81864 -2.27309,-3.61486 -3.47893,-5.37716 -0.92442,-1.36569 -1.86855,-2.71831 -2.76991,-4.09943 -2.93732,-5.07878 -5.8807,-10.15406 -8.81196,-15.23635 -0.25789,-0.44714 -0.48705,-0.92423 -0.66383,-1.40958 -0.13664,-0.37516 -0.1364,-0.42488 -0.22407,-0.80396 -0.0836,-0.70679 0.0172,-1.35793 0.31904,-2.00821 0.34923,-0.79267 0.77544,-1.5506 1.20841,-2.3 0.59487,-1.0212 1.21403,-2.02916 1.75286,-3.08182 0.45233,-0.914 0.87381,-1.84432 1.08356,-2.84876 0.0753,-0.34558 0.0706,-0.77776 0.30446,-1.05267 0,0 8.5773,13.32953 8.5773,13.32953 z"
       inkscape:connector-curvature="0" />
    <path
       style="opacity:1;fill:#532f2f;fill-opacity:1;stroke:none;stroke-width:1.32291667;stroke-linecap:butt;stroke-linejoin:miter;stroke-miterlimit:4;stroke-dasharray:none;stroke-dashoffset:0;stroke-opacity:1"
       id="path5149"
       d="m 234.44565,196.63531 c 0.10394,0.64427 -0.0491,1.3044 -0.17391,1.93515 -0.2829,1.38236 -0.81404,2.69147 -1.37439,3.98025 -0.75106,1.66694 -1.62981,3.2718 -2.53458,4.8591 -0.91418,1.62338 -1.95929,3.16294 -3.10619,4.6294 -0.98704,1.24165 -2.06985,2.40134 -3.14991,3.56127 -0.76513,0.80836 -1.51833,1.62756 -2.27499,2.44378 -0.45452,0.49835 -0.88757,1.01567 -1.33137,1.52348 -0.13444,0.14477 -0.26872,0.3014 -0.4436,0.40023 -0.0631,0.0357 -0.55315,0.26153 -0.58095,0.21669 -3.05382,-4.92734 -5.90404,-9.97799 -8.85605,-14.96699 0.0523,-0.77227 -0.2851,-1.54385 -0.54228,-2.25778 -0.59932,-1.61502 -1.36167,-3.16168 -2.13099,-4.70063 -0.61432,-1.25549 -1.29305,-2.47991 -1.89038,-3.74382 -0.34621,-0.73257 -0.45599,-0.49867 -0.22925,-0.82908 1.008,1.39949 2.01601,2.79898 3.02402,4.19847 0,0 0.20903,0.3058 0.20903,0.3058 v 0 c 1.31489,1.99947 2.62977,3.99893 3.94466,5.9984 1.42485,2.41136 2.7527,4.87439 4.02665,7.36892 0.92009,1.8101 1.85539,3.62167 2.55689,5.53063 0.18791,0.5744 0.21717,0.63776 0.3687,1.19342 0.0897,0.32905 0.13064,0.75728 0.30133,1.06142 0.0321,0.0571 0.0877,0.0973 0.13158,0.14599 -2.91391,-4.91698 -5.74596,-9.88339 -8.74173,-14.75093 -0.051,-0.0829 -0.14637,0.12844 -0.21592,0.19651 -0.0238,0.0233 -0.0552,0.0449 -0.0636,0.0771 -0.003,0.0107 0.30409,-0.26211 0.29431,-0.24591 0.47357,-0.46752 0.92686,-0.95516 1.40392,-1.41928 0.77665,-0.78335 1.55822,-1.56158 2.3167,-2.36275 1.07421,-1.1177 2.15143,-2.23648 3.12708,-3.44273 1.11486,-1.43161 2.14387,-2.9273 3.03342,-4.51084 0.88622,-1.56844 1.74287,-3.15775 2.43588,-4.82291 0.50377,-1.26902 0.95621,-2.56161 1.21228,-3.90649 0.0955,-0.542 0.13124,-1.09869 0.24691,-1.63234 0,0 9.00673,13.96648 9.00673,13.96648 z"
       inkscape:connector-curvature="0" />
    <path
       style="opacity:1;fill:#532f2f;fill-opacity:1;stroke:none;stroke-width:1.32291667;stroke-linecap:butt;stroke-linejoin:miter;stroke-miterlimit:4;stroke-dasharray:none;stroke-dashoffset:0;stroke-opacity:1"
       id="path5163"
       d="m 226.22633,201.49857 c 0.3442,0.26527 0.61191,0.63299 0.89646,0.96066 0.60952,0.69598 1.20912,1.40012 1.79343,2.11747 0.72229,0.87934 1.40522,1.78969 2.07112,2.71213 3.78865,5.58473 7.41794,11.35557 10.11588,17.54567 0.43048,1.0207 0.65846,2.09864 0.75472,3.19756 0.0686,1.03515 -0.13423,2.04144 -0.45818,3.01781 -0.34858,1.00555 -0.89664,1.91706 -1.50453,2.78395 -0.66752,0.91487 -1.47277,1.71302 -2.31195,2.46838 -0.89746,0.79875 -1.86669,1.5108 -2.84045,2.21249 -0.85862,0.61985 -1.71983,1.2355 -2.60443,1.81783 -0.56715,0.32484 -1.22237,0.74725 -1.91248,0.62339 -0.15673,-0.0281 -0.304,-0.0949 -0.456,-0.1423 -0.1447,-0.0548 -0.30658,-0.0767 -0.43411,-0.16429 -1.15406,-0.79268 -2.24948,-3.00474 -2.70208,-3.67687 -0.50662,-0.75234 -1.02377,-1.49754 -1.53566,-2.2463 0,0 -0.18749,-0.31946 -0.18749,-0.31946 v 0 c -0.41067,-0.82841 -0.81805,-1.65846 -1.23201,-2.48523 -0.4712,-0.94111 -1.75514,-2.78863 -1.89921,-4.25498 -0.0163,-0.16615 0.0395,-0.33155 0.0593,-0.49732 0.0279,-0.16594 0.0375,-0.33603 0.0838,-0.49784 0.19703,-0.68965 0.82935,-1.13795 1.37159,-1.54535 0.86909,-0.5854 1.74791,-1.15645 2.60436,-1.76045 0.95148,-0.67405 1.89429,-1.36221 2.76805,-2.13646 0.78515,-0.71469 1.54923,-1.45723 2.16841,-2.32508 0.55115,-0.79092 1.04418,-1.62227 1.32051,-2.55358 0.23458,-0.88498 0.37302,-1.78683 0.24198,-2.70292 -0.14789,-0.98997 -0.41316,-1.95417 -0.85145,-2.85824 -2.48268,-5.10596 -6.83811,-11.91569 7.62713,13.07793 0.10319,0.1783 -0.20009,-0.36021 -0.30412,-0.53802 -0.27129,-0.46375 -0.39393,-0.64646 -0.68389,-1.10137 -0.70784,-1.07473 -1.44402,-2.13056 -2.22538,-3.15346 -0.63924,-0.83605 -1.28136,-1.67007 -1.94836,-2.48431 -0.36829,-0.45888 -0.74506,-0.91224 -1.08326,-1.3941 0,0 -6.70168,-13.69734 -6.70168,-13.69734 z"
       inkscape:connector-curvature="0" />
    <path
       style="opacity:1;fill:#532f2f;fill-opacity:1;stroke:none;stroke-width:1.32291667;stroke-linecap:butt;stroke-linejoin:miter;stroke-miterlimit:4;stroke-dasharray:none;stroke-dashoffset:0;stroke-opacity:1"
       id="path5177"
       d="m 236.33758,204.02698 c 0.31319,-0.28471 0.63587,-0.55887 0.95475,-0.83722 0.70338,-0.60137 1.40425,-1.20567 2.09956,-1.81635 0.83776,-0.71943 1.66315,-1.45309 2.49176,-2.18299 0.70508,-0.61497 1.39537,-1.24652 2.09758,-1.86469 0.49805,-0.43773 0.99155,-0.88039 1.48248,-1.32602 0.59344,-0.5388 0.59776,-0.78776 1.40758,-0.39757 0.17152,0.16867 0.37126,0.3128 0.51457,0.50602 1.13393,1.5289 3.11295,4.82653 3.89089,6.07854 0,0 0.18552,0.32062 0.18552,0.32062 v 0 c 0.46767,0.8596 2.71305,4.91118 3.40776,6.38728 0.1068,0.22692 0.15767,0.47617 0.2365,0.71426 0.0617,0.90362 -0.0798,0.93416 -0.74592,1.4645 -0.50916,0.42407 -1.02978,0.83357 -1.55178,1.24167 -0.72304,0.57365 -1.45915,1.1309 -2.16744,1.72302 -0.8428,0.70638 -1.67524,1.42534 -2.49913,2.15367 -0.703,0.61542 -1.39106,1.24795 -2.1038,1.85219 -0.36533,0.29066 -0.73136,0.5937 -1.16025,0.78711 0,0 -8.54063,-14.80404 -8.54063,-14.80404 z"
       inkscape:connector-curvature="0" />
    <path
       style="opacity:1;fill:#532f2f;fill-opacity:1;stroke:none;stroke-width:1.32291667;stroke-linecap:butt;stroke-linejoin:miter;stroke-miterlimit:4;stroke-dasharray:none;stroke-dashoffset:0;stroke-opacity:1"
       id="path5199"
       d="m 233.43346,242.77552 c 0.11086,0.61963 0.0252,1.26976 -0.018,1.89392 -0.1256,1.76469 -0.18848,3.53136 -0.1967,5.30025 0.0115,2.73652 0.19354,5.46821 0.36662,8.19809 0.20524,3.0844 0.42744,6.16766 0.64945,9.2509 0.21851,2.99376 0.42848,5.98805 0.60055,8.98488 0.14092,2.6084 0.22284,5.21941 0.3086,7.83006 0.0612,2.02824 0.13312,4.05611 0.21848,6.08348 0.0673,1.48349 0.14587,2.96646 0.22976,4.44908 0.0639,1.12228 0.1255,2.24467 0.18632,3.36711 0.0444,0.84061 0.0736,1.6818 0.10097,2.52307 0.0206,0.58872 0.0343,1.17766 0.0566,1.7663 -0.008,0.35907 0.0727,0.73443 -0.0453,1.08093 -0.23271,0.27048 -0.80931,0.69472 -1.17271,0.44061 -0.0675,-0.0472 -0.11491,-0.11795 -0.17237,-0.17693 -0.71101,-1.05648 -1.46119,-2.08311 -2.23416,-3.0957 -1.10346,-1.52146 -2.37746,-2.95016 -3.32135,-4.5833 -2.96653,-5.43131 -1.61893,-3.05763 -3.99335,-7.14885 0,0 -0.16206,-0.33309 -0.16206,-0.33309 v 0 c -1.16574,-4.39608 1.58993,5.81631 -1.50105,-4.10199 -0.0271,-0.0868 0.18937,-0.0374 0.27276,0 0.16068,0.0698 0.2889,0.19857 0.42769,0.30549 0.42411,0.32673 0.53123,0.44545 0.93033,0.81843 0.61352,0.59976 1.23133,1.21275 1.7165,1.92397 0.0353,0.0688 0.12182,0.18381 0.0753,0.2767 -0.0974,0.19466 -0.42435,0.40114 -0.62611,0.42021 -0.0726,-0.2954 0.0161,-0.61716 -0.0251,-0.91709 -0.0104,-0.58063 -0.0288,-1.16113 -0.0423,-1.7417 -0.0221,-0.82249 -0.0494,-1.64484 -0.0836,-2.46693 -0.0451,-1.09862 -0.0934,-2.19712 -0.1411,-3.29565 -0.06,-1.45145 -0.11512,-2.90314 -0.15288,-4.35535 -0.0519,-1.98623 -0.0872,-3.9728 -0.13072,-5.95921 -0.0579,-2.57117 -0.12539,-5.1425 -0.26042,-7.71099 -0.1626,-2.97655 -0.36412,-5.95065 -0.57644,-8.92404 -0.21701,-3.08681 -0.43934,-6.17325 -0.64953,-9.26054 -0.18612,-2.78541 -0.37842,-5.57266 -0.40653,-8.3652 -0.004,-1.82812 0.0211,-3.65687 0.14674,-5.48138 0.0315,-0.51422 -0.019,-1.18585 0.22687,-1.65006 0,0 9.39813,14.65566 9.39813,14.65566 z"
       inkscape:connector-curvature="0" />
    <path
       style="opacity:1;fill:#532f2f;fill-opacity:1;stroke:none;stroke-width:1.32291667;stroke-linecap:butt;stroke-linejoin:miter;stroke-miterlimit:4;stroke-dasharray:none;stroke-dashoffset:0;stroke-opacity:1"
       id="path5221"
       d="m 218.34757,246.1546 c 0.43501,0.69993 0.73804,1.4699 1.06116,2.22503 0.45733,1.10224 0.94318,2.19061 1.4744,3.25917 0.11174,0.21413 0.2211,0.42953 0.33521,0.64241 0.2208,0.41196 0.53354,0.96795 0.76576,1.37191 0.13804,0.24014 0.55659,0.95803 0.41832,0.71802 -4.95588,-8.60276 -6.64507,-11.41777 -4.49143,-7.81716 0.92965,1.5318 1.88551,3.04749 2.8401,4.56381 0.84444,1.3507 1.70489,2.69114 2.58704,4.0175 0.75226,1.12063 1.51808,2.23205 2.2794,3.34652 0.67037,0.96194 1.30892,1.94463 1.92883,2.93962 1.09873,1.85824 2.04826,3.80142 3.03188,5.72169 0,0 0.16112,0.33353 0.16112,0.33353 v 0 c 0.2478,0.56066 0.49914,1.11972 0.74338,1.68191 0.16445,0.37851 0.33189,0.75597 0.48267,1.14014 0.051,0.12999 0.11205,0.26146 0.12209,0.40074 0.003,0.0355 -0.0643,-0.0303 -0.0965,-0.0454 -0.58071,-0.72409 -1.08417,-1.50421 -1.60612,-2.27084 -0.77214,-1.14173 -1.55173,-2.27841 -2.3209,-3.42212 -0.90141,-1.34595 -1.77977,-2.70695 -2.63463,-4.08298 -0.96467,-1.53341 -1.92932,-3.06693 -2.87517,-4.61204 -2.68069,-4.4286 -5.32825,-8.88811 -7.7126,-13.48424 -0.47867,-1.00293 -0.95356,-2.01297 -1.29016,-3.07435 -0.0319,-0.10321 -0.43616,-1.20661 0.025,-0.65681 0,0 4.77109,7.10394 4.77109,7.10394 z"
       inkscape:connector-curvature="0" />
    <path
       style="opacity:1;fill:#532f2f;fill-opacity:1;stroke:none;stroke-width:1.32291667;stroke-linecap:butt;stroke-linejoin:miter;stroke-miterlimit:4;stroke-dasharray:none;stroke-dashoffset:0;stroke-opacity:1"
       id="path5265"
       d="m 217.00099,243.09646 c -0.34705,0.50194 -0.69395,1.00383 -1.04707,1.50154 -0.9139,1.25357 -1.85887,2.48403 -2.79615,3.7201 -1.29318,1.70117 -2.52368,3.44827 -3.73971,5.20497 -1.22298,1.7817 -2.41217,3.58619 -3.59446,5.39502 -0.9893,1.50373 -1.94942,3.02618 -2.90693,4.55023 -0.73149,1.17131 -1.45764,2.34593 -2.1925,3.51515 -0.55969,0.88027 -1.10159,1.7717 -1.65932,2.65319 -0.40162,0.65185 -0.79488,1.30879 -1.19461,1.96178 -0.30859,0.48789 -0.67344,0.93057 -1.08325,1.33562 -0.36345,0.33903 -0.7514,0.65603 -1.17695,0.91371 -0.55009,0.3238 -1.13409,0.33173 -1.74117,0.20301 -1.21177,-0.40772 -2.11717,-1.35895 -2.99095,-2.24877 -1.15946,-1.38787 -2.33771,-2.80644 -3.22827,-4.38938 -0.87891,-1.56221 -1.67692,-3.16865 -2.53424,-4.74281 -0.52196,-0.95839 -1.06893,-1.90295 -1.6034,-2.85442 0,0 -0.16148,-0.33337 -0.16148,-0.33337 v 0 c -0.68026,-2.25389 -0.20408,-0.81526 -1.61301,-4.25041 -0.0373,-0.11508 0.22526,0.0965 0.31906,0.17293 0.18818,0.15324 0.8608,0.88711 1.00282,1.03607 0.17468,0.18324 0.35232,0.36364 0.52848,0.54546 0.75853,0.80117 1.52805,1.62802 2.49478,2.18166 0.36142,0.17265 0.70758,0.30762 1.085,0.096 0.36472,-0.22317 0.70444,-0.48368 1.00737,-0.78635 0.35654,-0.37942 0.67571,-0.78991 0.95685,-1.22865 0.42472,-0.60669 0.85635,-1.20858 1.27327,-1.82073 0.56568,-0.8627 1.12661,-1.7285 1.69946,-2.58649 0.75092,-1.14042 1.49618,-2.28457 2.25122,-3.42228 0.98803,-1.48576 1.99162,-2.96113 2.98257,-4.44495 1.20574,-1.78977 2.40839,-3.5817 3.63568,-5.3568 1.22305,-1.77262 2.45708,-3.5377 3.72411,-5.27928 0.91351,-1.2727 1.8352,-2.54196 2.65857,-3.87588 0.3291,-0.51908 0.66143,-1.03603 0.9943,-1.55268 0,0 8.64993,14.18684 8.64993,14.18684 z"
       inkscape:connector-curvature="0" />
    <path
       style="opacity:1;fill:#532f2f;fill-opacity:1;stroke:none;stroke-width:1.32291667;stroke-linecap:butt;stroke-linejoin:miter;stroke-miterlimit:4;stroke-dasharray:none;stroke-dashoffset:0;stroke-opacity:1"
       id="path5273"
       d="m 210.58268,226.23078 c 0.10082,-0.17934 0.16658,-0.37446 0.23392,-0.56797 0.0727,-0.21996 0.12815,-0.44535 0.1771,-0.67165 0.0392,-0.23255 0.0815,-0.41014 0.33908,-0.27972 0.11251,0.0748 0.18943,0.11719 0.28284,0.22727 0.2621,0.30885 0.79675,1.07583 0.96008,1.32315 0.5087,0.77029 2.1909,3.39127 2.83161,4.38805 0,0 0.19574,0.31448 0.19574,0.31448 v 0 c 1.66464,2.74095 0.74107,1.22911 2.77623,4.53212 0.20981,0.34421 0.67666,1.1277 0.89346,1.55572 0.0936,0.18475 0.14129,0.34391 0.20688,0.53642 0.0937,0.31123 0.17033,0.61 0.0412,0.92306 -0.0786,0.23994 -0.15873,0.47972 -0.26222,0.7104 -0.0968,0.21506 -0.2088,0.4224 -0.32282,0.62879 0,0 -8.35308,-13.62012 -8.35308,-13.62012 z"
       inkscape:connector-curvature="0" />
    <path
       style="opacity:1;fill:#532f2f;fill-opacity:1;stroke:none;stroke-width:1.32291667;stroke-linecap:butt;stroke-linejoin:miter;stroke-miterlimit:4;stroke-dasharray:none;stroke-dashoffset:0;stroke-opacity:1"
       id="path5281"
       d="m 234.21079,308.55843 c 0.021,0.32866 0.0579,0.65601 0.0774,0.98475 -10e-4,0.21947 0.16397,0.76743 -0.20472,0.71599 -0.71549,-0.62717 -1.2257,-1.45555 -1.7591,-2.22993 -0.71885,-1.0436 -1.42017,-2.09916 -2.13025,-3.14873 0,0 -0.20124,-0.31099 -0.20124,-0.31099 v 0 c -1.33362,-2.1458 -2.76673,-4.26543 -3.88417,-6.53815 -0.17983,-0.47873 -0.3292,-0.96001 -0.33784,-1.47611 -0.039,-0.323 -0.0686,-0.64936 -0.15677,-0.96372 0,0 8.59672,12.96689 8.59672,12.96689 z"
       inkscape:connector-curvature="0" />
    <path
       style="opacity:1;fill:#532f2f;fill-opacity:1;stroke:none;stroke-width:1.32291667;stroke-linecap:butt;stroke-linejoin:miter;stroke-miterlimit:4;stroke-dasharray:none;stroke-dashoffset:0;stroke-opacity:1"
       id="path5285"
       d="m 235.00536,95.95773 c 0.19784,-0.142028 0.33046,-0.314931 0.58523,-0.246303 0.65334,0.343879 1.13189,1.121174 1.49239,1.707983 1.05588,1.71877 2.06517,3.46573 3.09776,5.19859 0,0 0.184,0.32149 0.184,0.32149 v 0 c 0.98511,1.75571 1.97887,3.5066 2.95533,5.26714 0.35564,0.6412 0.8586,1.38326 0.88974,2.15442 -0.0306,0.27356 -0.20166,0.39148 -0.40073,0.56431 0,0 -8.80372,-14.96763 -8.80372,-14.96763 z"
       inkscape:connector-curvature="0" />
    <path
       style="opacity:1;fill:#532f2f;fill-opacity:1;stroke:none;stroke-width:1.32291667;stroke-linecap:butt;stroke-linejoin:miter;stroke-miterlimit:4;stroke-dasharray:none;stroke-dashoffset:0;stroke-opacity:1"
       id="path5291"
       d="m 292.47227,20.260792 c 0.1937,-1.77e-4 0.38412,-0.01581 0.57488,-0.04959 0.181,-0.03487 0.36507,-0.04814 0.54748,-0.07298 0.4986,-0.008 0.87479,0.84048 1.08468,1.160391 1.76149,3.030004 0.62328,1.053709 3.37296,5.952686 0,0 0.17786,0.324919 0.17786,0.324919 v 0 c 2.60477,4.898199 1.58871,2.896198 3.12142,5.968277 0.0276,0.06347 0.68585,1.226003 0.19508,1.186665 -0.20222,-0.01326 -0.40516,-0.015 -0.6069,-0.03581 -0.22718,-0.02085 -0.45496,-0.02503 -0.68197,-0.04249 0,0 -7.78549,-14.39206 -7.78549,-14.39206 z"
       inkscape:connector-curvature="0" />
  </g>
</svg>
